<?xml version="1.0" encoding="UTF-8" standalone="no"?>
<!-- Created with Inkscape (http://www.inkscape.org/) -->

<svg
   xmlns:dc="http://purl.org/dc/elements/1.1/"
   xmlns:cc="http://creativecommons.org/ns#"
   xmlns:rdf="http://www.w3.org/1999/02/22-rdf-syntax-ns#"
   xmlns:svg="http://www.w3.org/2000/svg"
   xmlns="http://www.w3.org/2000/svg"
   xmlns:sodipodi="http://sodipodi.sourceforge.net/DTD/sodipodi-0.dtd"
   xmlns:inkscape="http://www.inkscape.org/namespaces/inkscape"
   width="512"
   height="512"
   viewBox="0 0 135.46666 135.46666"
   version="1.1"
   id="svg8"
   inkscape:version="0.92.3 (2405546, 2018-03-11)"
   sodipodi:docname="security_drawing.svg"
   inkscape:export-filename="F:\Yoshi\Desktop\security_drawing.png"
   inkscape:export-xdpi="300"
   inkscape:export-ydpi="300">
  <defs
     id="defs2">
    <inkscape:path-effect
       effect="bspline"
       id="path-effect1944"
       is_visible="true"
       weight="33.333333"
       steps="2"
       helper_size="0"
       apply_no_weight="true"
       apply_with_weight="true"
       only_selected="false" />
    <inkscape:path-effect
       effect="bspline"
       id="path-effect1673"
       is_visible="true"
       weight="33.333333"
       steps="2"
       helper_size="0"
       apply_no_weight="true"
       apply_with_weight="true"
       only_selected="false" />
    <inkscape:path-effect
       effect="bspline"
       id="path-effect1095"
       is_visible="true"
       weight="33.333333"
       steps="2"
       helper_size="0"
       apply_no_weight="true"
       apply_with_weight="true"
       only_selected="false" />
    <inkscape:path-effect
       effect="bspline"
       id="path-effect1057"
       is_visible="true"
       weight="33.333333"
       steps="2"
       helper_size="0"
       apply_no_weight="true"
       apply_with_weight="true"
       only_selected="false" />
    <inkscape:path-effect
       effect="bspline"
       id="path-effect1053"
       is_visible="true"
       weight="33.333333"
       steps="2"
       helper_size="0"
       apply_no_weight="true"
       apply_with_weight="true"
       only_selected="false" />
    <inkscape:path-effect
       effect="bspline"
       id="path-effect1029"
       is_visible="true"
       weight="33.333333"
       steps="2"
       helper_size="0"
       apply_no_weight="true"
       apply_with_weight="true"
       only_selected="false" />
    <inkscape:path-effect
       effect="bspline"
       id="path-effect1024"
       is_visible="true"
       weight="33.333333"
       steps="2"
       helper_size="0"
       apply_no_weight="true"
       apply_with_weight="true"
       only_selected="false" />
    <inkscape:path-effect
       effect="bspline"
       id="path-effect1020"
       is_visible="true"
       weight="33.333333"
       steps="2"
       helper_size="0"
       apply_no_weight="true"
       apply_with_weight="true"
       only_selected="false" />
    <inkscape:path-effect
       effect="bspline"
       id="path-effect1016"
       is_visible="true"
       weight="33.333333"
       steps="2"
       helper_size="0"
       apply_no_weight="true"
       apply_with_weight="true"
       only_selected="false" />
    <inkscape:path-effect
       effect="bspline"
       id="path-effect1227"
       is_visible="true"
       weight="33.333333"
       steps="2"
       helper_size="0"
       apply_no_weight="true"
       apply_with_weight="true"
       only_selected="false" />
    <inkscape:path-effect
       effect="bspline"
       id="path-effect1204"
       is_visible="true"
       weight="33.333333"
       steps="2"
       helper_size="0"
       apply_no_weight="true"
       apply_with_weight="true"
       only_selected="false" />
    <inkscape:path-effect
       effect="bspline"
       id="path-effect1200"
       is_visible="true"
       weight="33.333333"
       steps="2"
       helper_size="0"
       apply_no_weight="true"
       apply_with_weight="true"
       only_selected="false" />
    <inkscape:path-effect
       effect="bspline"
       id="path-effect1142"
       is_visible="true"
       weight="33.333333"
       steps="2"
       helper_size="0"
       apply_no_weight="true"
       apply_with_weight="true"
       only_selected="false" />
    <inkscape:path-effect
       effect="bspline"
       id="path-effect1138"
       is_visible="true"
       weight="33.333333"
       steps="2"
       helper_size="0"
       apply_no_weight="true"
       apply_with_weight="true"
       only_selected="false" />
    <inkscape:path-effect
       effect="bspline"
       id="path-effect1048"
       is_visible="true"
       weight="33.333333"
       steps="2"
       helper_size="0"
       apply_no_weight="true"
       apply_with_weight="true"
       only_selected="false" />
    <inkscape:path-effect
       effect="bspline"
       id="path-effect1044"
       is_visible="true"
       weight="33.333333"
       steps="2"
       helper_size="0"
       apply_no_weight="true"
       apply_with_weight="true"
       only_selected="false" />
    <inkscape:path-effect
       effect="bspline"
       id="path-effect955"
       is_visible="true"
       weight="33.333333"
       steps="2"
       helper_size="0"
       apply_no_weight="true"
       apply_with_weight="true"
       only_selected="false" />
    <inkscape:path-effect
       effect="bspline"
       id="path-effect929"
       is_visible="true"
       weight="33.333333"
       steps="2"
       helper_size="0"
       apply_no_weight="true"
       apply_with_weight="true"
       only_selected="false" />
    <inkscape:path-effect
       effect="bspline"
       id="path-effect907"
       is_visible="true"
       weight="33.333333"
       steps="2"
       helper_size="0"
       apply_no_weight="true"
       apply_with_weight="true"
       only_selected="false" />
    <inkscape:path-effect
       effect="bspline"
       id="path-effect903"
       is_visible="true"
       weight="33.333333"
       steps="2"
       helper_size="0"
       apply_no_weight="true"
       apply_with_weight="true"
       only_selected="false" />
    <inkscape:path-effect
       effect="bspline"
       id="path-effect887"
       is_visible="true"
       weight="33.333333"
       steps="2"
       helper_size="0"
       apply_no_weight="true"
       apply_with_weight="true"
       only_selected="false" />
    <inkscape:path-effect
       effect="bspline"
       id="path-effect4573"
       is_visible="true"
       weight="33.333333"
       steps="2"
       helper_size="0"
       apply_no_weight="true"
       apply_with_weight="true"
       only_selected="false" />
    <inkscape:path-effect
       effect="bspline"
       id="path-effect955-4"
       is_visible="true"
       weight="33.333333"
       steps="2"
       helper_size="0"
       apply_no_weight="true"
       apply_with_weight="true"
       only_selected="false" />
    <inkscape:path-effect
       effect="bspline"
       id="path-effect1044-0"
       is_visible="true"
       weight="33.333333"
       steps="2"
       helper_size="0"
       apply_no_weight="true"
       apply_with_weight="true"
       only_selected="false" />
    <inkscape:path-effect
       effect="bspline"
       id="path-effect1048-4"
       is_visible="true"
       weight="33.333333"
       steps="2"
       helper_size="0"
       apply_no_weight="true"
       apply_with_weight="true"
       only_selected="false" />
    <inkscape:path-effect
       effect="bspline"
       id="path-effect1029-8"
       is_visible="true"
       weight="33.333333"
       steps="2"
       helper_size="0"
       apply_no_weight="true"
       apply_with_weight="true"
       only_selected="false" />
    <inkscape:path-effect
       effect="bspline"
       id="path-effect1095-7"
       is_visible="true"
       weight="33.333333"
       steps="2"
       helper_size="0"
       apply_no_weight="true"
       apply_with_weight="true"
       only_selected="false" />
    <inkscape:path-effect
       effect="bspline"
       id="path-effect1095-8"
       is_visible="true"
       weight="33.333333"
       steps="2"
       helper_size="0"
       apply_no_weight="true"
       apply_with_weight="true"
       only_selected="false" />
    <inkscape:path-effect
       effect="bspline"
       id="path-effect1024-1"
       is_visible="true"
       weight="33.333333"
       steps="2"
       helper_size="0"
       apply_no_weight="true"
       apply_with_weight="true"
       only_selected="false" />
    <inkscape:path-effect
       effect="bspline"
       id="path-effect1029-0"
       is_visible="true"
       weight="33.333333"
       steps="2"
       helper_size="0"
       apply_no_weight="true"
       apply_with_weight="true"
       only_selected="false" />
    <inkscape:path-effect
       effect="bspline"
       id="path-effect1029-8-4"
       is_visible="true"
       weight="33.333333"
       steps="2"
       helper_size="0"
       apply_no_weight="true"
       apply_with_weight="true"
       only_selected="false" />
    <inkscape:path-effect
       effect="bspline"
       id="path-effect1024-8"
       is_visible="true"
       weight="33.333333"
       steps="2"
       helper_size="0"
       apply_no_weight="true"
       apply_with_weight="true"
       only_selected="false" />
    <inkscape:path-effect
       effect="bspline"
       id="path-effect1095-4"
       is_visible="true"
       weight="33.333333"
       steps="2"
       helper_size="0"
       apply_no_weight="true"
       apply_with_weight="true"
       only_selected="false" />
    <inkscape:path-effect
       effect="bspline"
       id="path-effect1095-8-7"
       is_visible="true"
       weight="33.333333"
       steps="2"
       helper_size="0"
       apply_no_weight="true"
       apply_with_weight="true"
       only_selected="false" />
    <inkscape:path-effect
       effect="bspline"
       id="path-effect1024-1-3"
       is_visible="true"
       weight="33.333333"
       steps="2"
       helper_size="0"
       apply_no_weight="true"
       apply_with_weight="true"
       only_selected="false" />
  </defs>
  <sodipodi:namedview
     id="base"
     pagecolor="#ffffff"
     bordercolor="#666666"
     borderopacity="1.0"
     inkscape:pageopacity="0.0"
     inkscape:pageshadow="2"
     inkscape:zoom="1.4142136"
     inkscape:cx="214.03907"
     inkscape:cy="236.65085"
     inkscape:document-units="mm"
     inkscape:current-layer="layer1"
     showgrid="false"
     inkscape:pagecheckerboard="false"
     showborder="true"
     inkscape:showpageshadow="false"
     units="px"
     inkscape:window-width="1920"
     inkscape:window-height="1057"
     inkscape:window-x="1912"
     inkscape:window-y="527"
     inkscape:window-maximized="1"
     objecttolerance="5" />
  <metadata
     id="metadata5">
    <rdf:RDF>
      <cc:Work
         rdf:about="">
        <dc:format>image/svg+xml</dc:format>
        <dc:type
           rdf:resource="http://purl.org/dc/dcmitype/StillImage" />
        <dc:title />
      </cc:Work>
    </rdf:RDF>
  </metadata>
  <g
     inkscape:label="Layer 1"
     inkscape:groupmode="layer"
     id="layer1"
     transform="translate(0,-161.53335)">
    <g
       id="alice"
       transform="matrix(0.4,0,0,0.4,83.67779,84.154504)">
      <path
         inkscape:connector-curvature="0"
         d="m -195.80349,296.89489 v 0.25339 h 86.26216 v -0.25339 z m 18.48355,-15.84332 -0.0763,0.24027 c 18.77095,6.02859 31.35674,5.87161 49.44774,0 l -0.0764,-0.24027 c -18.05962,5.86141 -30.55655,6.01817 -49.29506,0 z m 52.24812,-0.007 -0.12475,0.015 0.0296,0.25151 0.12475,-0.015 c 2.76114,-0.32011 6.6563,0.8219 9.82735,3.44088 3.17105,2.61901 5.62394,6.70306 5.54674,12.28144 l -0.002,0.12669 0.2532,0.004 0.002,-0.12669 c 0.0783,-5.65413 -2.41859,-9.82016 -5.63983,-12.48063 -3.22125,-2.66043 -7.16173,-3.8279 -10.01727,-3.49673 z m -55.20117,0 c -2.85562,-0.33098 -6.79599,0.83625 -10.01728,3.49676 -3.22128,2.66047 -5.71809,6.82643 -5.63983,12.48063 l 0.002,0.12669 0.25323,-0.004 -0.002,-0.12669 c -0.0772,-5.5783 2.37574,-9.66247 5.54675,-12.2814 3.17101,-2.61898 7.06629,-3.7611 9.82735,-3.44088 l 0.12662,0.015 0.0281,-0.25151 z"
         style="color:#000000;font-style:normal;font-variant:normal;font-weight:normal;font-stretch:normal;font-size:medium;line-height:normal;font-family:sans-serif;font-variant-ligatures:normal;font-variant-position:normal;font-variant-caps:normal;font-variant-numeric:normal;font-variant-alternates:normal;font-feature-settings:normal;text-indent:0;text-align:start;text-decoration:none;text-decoration-line:none;text-decoration-style:solid;text-decoration-color:#000000;letter-spacing:normal;word-spacing:normal;text-transform:none;writing-mode:lr-tb;direction:ltr;text-orientation:mixed;dominant-baseline:auto;baseline-shift:baseline;text-anchor:start;white-space:normal;shape-padding:0;clip-rule:nonzero;display:inline;overflow:visible;visibility:visible;opacity:1;isolation:auto;mix-blend-mode:normal;color-interpolation:sRGB;color-interpolation-filters:linearRGB;solid-color:#000000;solid-opacity:1;vector-effect:none;fill:none;fill-opacity:1;fill-rule:nonzero;stroke:none;stroke-width:0.25223178px;stroke-linecap:butt;stroke-linejoin:miter;stroke-miterlimit:4;stroke-dasharray:none;stroke-dashoffset:0;stroke-opacity:1;color-rendering:auto;image-rendering:auto;shape-rendering:auto;text-rendering:auto;enable-background:accumulate"
         id="path827" />
      <path
         inkscape:connector-curvature="0"
         id="path850"
         d="m -195.57146,295.61336 c 0.20908,-4.7176 2.6988,-9.07476 6.72805,-11.77459 1.97922,-1.32616 4.3548,-2.24091 6.42143,-2.47264 0.52813,-0.0592 1.64971,-0.0678 3.0823,-0.0225 l 2.25207,0.0697 1.97416,0.60727 c 10.84603,3.3363 20.0655,4.40192 29.28457,3.38473 5.08137,-0.56064 10.82266,-1.83354 16.75631,-3.71496 l 0.99,-0.31373 2.25207,-0.048 c 2.45546,-0.0525 3.22704,0.007 4.59423,0.35572 2.6026,0.66304 5.14183,2.14514 7.16158,4.18012 2.72046,2.74095 4.1052,6.01019 4.3588,10.29073 l 0.0413,0.69813 h -42.97586 -42.97591 z"
         style="fill:#999999;fill-opacity:1;stroke:none;stroke-width:0.09022466;stroke-linecap:square;stroke-linejoin:miter;stroke-miterlimit:4;stroke-dasharray:none;stroke-opacity:1;paint-order:stroke fill markers" />
      <path
         inkscape:connector-curvature="0"
         id="path951"
         d="m -170.798,274.10685 c 0.14161,-0.61721 0.50997,-2.76224 0.61106,-3.55828 0.16897,-1.33051 0.14506,-4.78927 -0.0427,-6.17065 -0.30831,-2.26899 -0.75065,-3.45122 -2.04204,-5.45767 -1.24999,-1.94214 -1.84223,-3.36558 -2.69268,-6.4718 -0.75079,-2.74214 -1.27754,-5.47788 -1.55394,-8.07047 -0.17632,-1.65392 -0.14922,-5.82014 0.0489,-7.52035 0.87487,-7.50683 3.3099,-13.69671 7.38143,-18.7637 2.10599,-2.62088 4.52685,-4.6673 6.68791,-5.65349 2.20989,-1.00849 4.44759,-1.39888 8.01231,-1.39791 6.71827,0.002 12.08452,1.65242 16.2149,4.98741 1.05857,0.85474 2.71887,2.60578 3.63358,3.83217 2.76668,3.70948 4.71636,8.34923 5.49821,13.08433 0.57872,3.50494 0.48792,7.29647 -0.26516,11.07275 -0.42551,2.13364 -0.92991,3.98518 -2.73071,10.02381 -1.67714,5.62392 -2.11735,8.16845 -2.00616,11.59609 0.0713,2.19616 0.36029,4.10824 1.10298,7.2967 l 0.0525,0.22527 -0.18576,-0.22527 c -0.10218,-0.12407 -0.61411,-0.84102 -1.13764,-1.59369 -4.0183,-5.777 -5.96334,-10.96719 -7.38672,-19.7109 -0.57588,-3.53762 -0.98757,-6.8828 -1.80154,-14.63845 -0.27299,-2.60113 -0.59644,-5.42075 -0.71877,-6.26582 -0.77176,-5.33121 -1.58183,-5.92382 -6.93659,-5.07429 -3.67655,0.58328 -10.85827,2.30996 -13.6428,3.28007 -2.55449,0.88997 -2.88243,1.33902 -3.46793,4.74864 -0.62595,3.64516 -0.9514,7.10567 -1.01462,10.78828 -0.0631,3.67301 0.0131,4.81873 0.8244,12.38636 0.38115,3.55573 0.44837,4.68803 0.45192,7.61201 0.004,3.09302 -0.0919,4.08371 -0.54583,5.65401 -0.39462,1.36511 -1.43981,3.26489 -2.21713,4.02989 l -0.18307,0.1803 z"
         style="fill:#502d16;fill-opacity:1;stroke:none;stroke-width:0.09022466;stroke-linecap:square;stroke-linejoin:miter;stroke-miterlimit:4;stroke-dasharray:none;stroke-opacity:1;paint-order:stroke fill markers" />
      <path
         inkscape:connector-curvature="0"
         id="path856"
         d="m -154.88382,285.71812 c -5.50137,-0.23652 -10.87286,-1.1085 -16.85065,-2.73532 -1.5275,-0.41566 -5.07048,-1.47085 -5.13316,-1.52877 -0.0131,-0.0112 0.16602,-0.0394 0.39812,-0.0603 1.98021,-0.17954 4.06802,-0.77403 5.69006,-1.61973 4.85487,-2.5313 7.89125,-7.75917 9.38065,-16.1511 0.28161,-1.58671 0.60078,-4.05313 0.70468,-5.44549 l 0.0221,-0.29462 h 8.00223 8.00222 l 0.0195,0.19904 c 0.13479,1.38936 0.19934,1.99123 0.2929,2.73052 1.28081,10.12003 4.51555,16.30459 9.95459,19.03234 1.62274,0.81384 3.65492,1.37051 5.64922,1.54747 l 0.44589,0.0397 -0.3185,0.10271 c -3.52278,1.13477 -7.39935,2.1559 -10.74907,2.83132 -3.61868,0.72969 -6.61638,1.12139 -10.128,1.32335 -0.75535,0.0435 -4.56949,0.0641 -5.38249,0.03 z"
         style="fill:#deaa87;fill-opacity:1;stroke:none;stroke-width:0.03189924;stroke-linecap:square;stroke-linejoin:miter;stroke-miterlimit:4;stroke-dasharray:none;stroke-opacity:1;paint-order:stroke fill markers" />
      <ellipse
         ry="24.460091"
         rx="19.109446"
         cy="245.76436"
         cx="-153.15994"
         id="path825"
         style="fill:#e9c6af;fill-opacity:1;stroke:none;stroke-width:10.0892725;stroke-linecap:round;stroke-linejoin:round;stroke-miterlimit:4;stroke-dasharray:none;stroke-opacity:1;paint-order:stroke fill markers" />
      <path
         inkscape:connector-curvature="0"
         id="path825-4"
         d="m -153.15987,221.30421 v 48.92017 a 19.109446,24.46009 0 0 1 -19.10952,-24.46007 19.109446,24.46009 0 0 1 19.10952,-24.4601 z"
         style="fill:#deaa87;fill-opacity:0.97777776;stroke:none;stroke-width:10.0892725;stroke-linecap:round;stroke-linejoin:round;stroke-miterlimit:4;stroke-dasharray:none;stroke-opacity:1;paint-order:stroke fill markers" />
      <path
         inkscape:connector-curvature="0"
         id="path941"
         d="m -172.85466,247.25256 c -0.34684,-0.30624 -0.7833,-0.69348 -0.96995,-0.86036 l -0.33937,-0.30324 3.21539,-11.74479 3.21539,-11.74483 0.54712,-0.0615 c 0.30092,-0.0337 6.3605,-0.82906 13.46574,-1.7672 7.10524,-0.93814 12.93637,-1.68792 12.95809,-1.66622 0.0376,0.0375 0.92538,8.82561 0.89328,8.84259 -0.009,0.004 -1.1099,0.33773 -2.44763,0.74068 -6.28185,1.89186 -8.87208,2.45483 -14.59341,3.17185 -4.11723,0.51596 -5.46018,0.77096 -7.15727,1.359 -2.60766,0.90351 -4.22317,2.30824 -5.44482,4.73432 -1.06954,2.12405 -1.69505,4.36759 -2.64043,9.47059 l -0.0716,0.38623 z"
         style="fill:#502d16;fill-opacity:1;stroke:none;stroke-width:0.09022466;stroke-linecap:square;stroke-linejoin:miter;stroke-miterlimit:4;stroke-dasharray:none;stroke-opacity:1;paint-order:stroke fill markers" />
      <path
         inkscape:connector-curvature="0"
         id="path975"
         d="m -161.74476,244.75646 c -0.98998,-0.0825 -2.14266,-0.64794 -3.61502,-1.77271 -0.61269,-0.46806 -1.33491,-1.06742 -1.31151,-1.08845 0.10053,-0.0903 1.13403,-0.90939 1.41277,-1.11978 1.24697,-0.94106 2.22279,-1.45373 3.1391,-1.64909 0.33585,-0.0716 1.01824,-0.0712 1.35979,6e-4 0.89952,0.18929 1.81672,0.66972 3.08123,1.61344 0.56607,0.42248 1.44659,1.13823 1.44659,1.1759 0,0.0375 -0.84227,0.72193 -1.44659,1.17795 -1.66067,1.25315 -2.89968,1.75959 -4.06636,1.66214 z"
         style="fill:#ffffff;fill-opacity:1;stroke:none;stroke-width:0.02897732;stroke-linecap:square;stroke-linejoin:miter;stroke-miterlimit:4;stroke-dasharray:none;stroke-opacity:1;paint-order:stroke fill markers" />
      <circle
         r="1.6214904"
         cy="242.43994"
         cx="-161.16379"
         id="path996"
         style="fill:#000000;fill-opacity:1;stroke:none;stroke-width:0.25262904;stroke-linecap:square;stroke-linejoin:miter;stroke-miterlimit:4;stroke-dasharray:none;stroke-opacity:1;paint-order:stroke fill markers" />
      <ellipse
         ry="0.55978239"
         rx="0.55978233"
         cy="242.15544"
         cx="-160.69133"
         id="path996-7"
         style="fill:#ffffff;fill-opacity:1;stroke:none;stroke-width:0.0872144;stroke-linecap:square;stroke-linejoin:miter;stroke-miterlimit:4;stroke-dasharray:none;stroke-opacity:1;paint-order:stroke fill markers" />
      <path
         inkscape:connector-curvature="0"
         id="path1149-8"
         d="m -153.75893,264.56275 c -1.58093,-0.38326 -3.33992,-2.10642 -5.37179,-5.26238 -0.62205,-0.96618 -1.22866,-2.05703 -1.33125,-2.39393 l -0.0436,-0.14318 h 7.5516 7.55159 l -0.13037,0.33435 c -0.32911,0.8442 -1.89503,3.16323 -3.08765,4.57261 -1.00869,1.19198 -2.34437,2.31409 -3.18191,2.67311 -0.71747,0.30736 -1.31635,0.37483 -1.95658,0.21965 z"
         style="fill:#ffffff;fill-opacity:1;stroke:none;stroke-width:0.06379847;stroke-linecap:round;stroke-linejoin:round;stroke-miterlimit:4;stroke-dasharray:none;stroke-opacity:1;paint-order:stroke fill markers" />
      <path
         inkscape:connector-curvature="0"
         id="path1149"
         d="m -159.86883,258.35814 c 0.20035,0.3456 0.41748,0.70814 0.64634,1.0636 0.93848,1.45766 1.81843,2.60582 2.64992,3.4613 h 6.82405 c 0.36067,-0.34297 0.71549,-0.71185 1.03651,-1.09122 0.82516,-0.9751 1.82034,-2.37739 2.46961,-3.43368 z"
         style="fill:#ffaaaa;fill-opacity:1;stroke:none;stroke-width:0.06379847;stroke-linecap:round;stroke-linejoin:round;stroke-miterlimit:4;stroke-dasharray:none;stroke-opacity:1;paint-order:stroke fill markers" />
      <path
         inkscape:connector-curvature="0"
         id="path1136"
         d="m -160.80905,256.69174 c 0.1072,0.43586 0.2147,0.87168 1.46951,2.73671 1.25482,1.86507 3.65753,5.15916 6.14536,5.15537 2.48782,-0.004 5.05991,-3.30481 6.38994,-5.17003 1.33003,-1.86518 1.41755,-2.29328 1.50502,-2.72205 z"
         style="fill:none;stroke:#ff7daa;stroke-width:0.74733335;stroke-linecap:butt;stroke-linejoin:round;stroke-miterlimit:4;stroke-dasharray:none;stroke-opacity:1" />
      <path
         id="path1229"
         transform="matrix(0.26458333,0,0,0.26458333,0,161.53335)"
         d="m -626.46094,282.11914 c -1.0306,0.009 -2.0574,0.0258 -3.07617,0.0527 -9.12106,0.2409 -13.08282,0.6736 -24.73828,2.70117 -0.26873,0.0469 -0.28168,0.0653 -0.21289,0.33398 0.04,0.15666 0.49088,2.19484 1.00195,4.5293 l 0.92969,4.24414 0.37305,0.002 c 1.03657,0.004 2.32145,0.54997 3.08007,1.3086 0.83146,0.83145 1.02425,1.38365 2.37305,6.7832 1.56525,6.26612 2.1621,8.42318 3.17774,11.47266 1.22604,3.68114 2.16482,5.81142 3.13476,7.11914 1.06575,1.43686 2.82636,3.03786 4.63086,4.20898 3.74714,2.4319 7.6205,3.42809 15.20703,3.91406 1.20042,0.0771 5.96198,-0.0338 7.21875,-0.16797 4.64334,-0.4964 8.1969,-1.39717 11.57617,-2.93359 4.30969,-1.95938 6.6057,-4.07723 9.9668,-9.18945 2.1577,-3.28188 4.04988,-7.02056 7.09766,-14.02149 1.71103,-3.93033 1.89779,-4.27137 2.75586,-5.05664 0.86376,-0.79042 2.49632,-1.42865 3.66992,-1.43945 h 0.25195 c 1.17559,0 2.83007,0.64423 3.70117,1.44141 0.85811,0.78523 1.04483,1.1263 2.75586,5.05664 3.04774,7.00093 4.93993,10.73957 7.09766,14.02148 3.36109,5.11223 5.65715,7.23007 9.9668,9.18945 3.37931,1.53642 6.93287,2.43723 11.57617,2.9336 1.2568,0.13455 6.01837,0.24469 7.21875,0.16797 7.58653,-0.48601 11.45989,-1.48412 15.20703,-3.91602 1.8045,-1.17112 3.56511,-2.77021 4.63086,-4.20703 0.96998,-1.30772 1.90876,-3.438 3.13476,-7.11914 1.01568,-3.04948 1.61248,-5.20658 3.17774,-11.47266 1.3488,-5.39958 1.54159,-5.95174 2.37305,-6.7832 0.75862,-0.75863 2.04542,-1.30485 3.08203,-1.30859 l 0.37109,-0.002 0.92969,-4.24414 c 0.51107,-2.3345 0.96193,-4.37263 1.00195,-4.5293 0.0688,-0.26872 0.0558,-0.28711 -0.21289,-0.33398 -11.65542,-2.0276 -15.61722,-2.46026 -24.73828,-2.70117 -8.15017,-0.21543 -16.79417,0.16374 -24.06836,1.05469 -7.21005,0.8832 -12.18258,1.82369 -19.66211,3.71875 -3.68179,0.93286 -4.65087,1.11076 -6.5,1.19531 l -1.13281,0.0527 -1.17383,-0.0547 c -1.84913,-0.0846 -2.81817,-0.26248 -6.5,-1.19531 -7.4795,-1.89505 -12.4501,-2.83551 -19.66016,-3.71875 -6.36491,-0.77954 -13.77989,-1.167 -20.99414,-1.10742 z m 5.97266,3.99414 c 9.34318,-0.0966 13.98124,0.17588 18.88476,1.11328 5.7526,1.09973 8.80322,2.89054 10.35547,6.07422 1.20439,2.47004 1.19368,5.28923 -0.041,10.17578 -0.44036,1.74282 -1.35067,4.88664 -1.79688,6.20899 -1.3477,3.99375 -3.27562,7.11578 -6.02148,9.75 -3.57166,3.42644 -7.42581,4.92759 -14.25391,5.55468 -1.4866,0.13758 -7.35717,0.25263 -8.49023,0.16797 -1.84642,-0.13833 -2.94519,-0.24265 -3.76758,-0.36132 -4.35889,-0.62835 -7.81009,-2.17203 -10.01367,-4.47852 -1.5651,-1.6382 -2.59975,-3.66264 -3.85742,-7.54883 -2.80343,-8.66264 -3.2602,-16.63794 -1.20508,-21.02344 1.54923,-3.30599 4.18607,-4.69209 9.99219,-5.25195 2.43945,-0.23535 4.88355,-0.32568 10.21484,-0.38086 z m 84.66992,0.002 c 5.33125,0.0552 7.77539,0.14547 10.21484,0.38086 5.80615,0.55987 8.44296,1.946 9.99219,5.25196 2.05512,4.38553 1.59835,12.3608 -1.20508,21.02343 -1.25763,3.88615 -2.29228,5.91063 -3.85742,7.54883 -2.20358,2.30646 -5.65482,3.85017 -10.01367,4.47852 -0.82243,0.11868 -1.9212,0.223 -3.76758,0.36133 -1.13306,0.0847 -7.00359,-0.0304 -8.49023,-0.16797 -6.82806,-0.62706 -10.68226,-2.12825 -14.25391,-5.55469 -2.74583,-2.63422 -4.67382,-5.75625 -6.02148,-9.75 -0.44625,-1.32238 -1.35453,-4.46617 -1.79492,-6.20898 -1.23466,-4.88652 -1.24736,-7.70575 -0.043,-10.17579 1.55221,-3.18372 4.60287,-4.97452 10.35547,-6.07421 4.90352,-0.9374 9.54158,-1.20985 18.88476,-1.11329 z"
         style="fill:#000000;fill-opacity:1;stroke:none;stroke-width:0.09093468;stroke-linecap:round;stroke-linejoin:miter;stroke-miterlimit:4;stroke-dasharray:none;stroke-opacity:1;paint-order:stroke fill markers"
         inkscape:connector-curvature="0" />
      <path
         inkscape:connector-curvature="0"
         id="path975-1"
         d="m -144.15227,244.92476 c -0.98998,-0.0828 -2.14266,-0.64798 -3.61502,-1.77275 -0.61269,-0.46806 -1.3349,-1.06742 -1.31151,-1.08841 0.10053,-0.0903 1.13403,-0.90942 1.41278,-1.11978 1.24696,-0.9411 2.22278,-1.45373 3.13909,-1.64913 0.33585,-0.0716 1.01824,-0.0712 1.35979,6.4e-4 0.89953,0.18929 1.81673,0.66968 3.08123,1.6134 0.56607,0.42248 1.44659,1.13823 1.44659,1.1759 0,0.0375 -0.84227,0.72193 -1.44659,1.17796 -1.66067,1.25315 -2.89968,1.75959 -4.06636,1.66213 z"
         style="fill:#ffffff;fill-opacity:1;stroke:none;stroke-width:0.02897732;stroke-linecap:square;stroke-linejoin:miter;stroke-miterlimit:4;stroke-dasharray:none;stroke-opacity:1;paint-order:stroke fill markers" />
      <circle
         r="1.6214904"
         cy="242.6082"
         cx="-143.57129"
         id="path996-2"
         style="fill:#000000;fill-opacity:1;stroke:none;stroke-width:0.25262904;stroke-linecap:square;stroke-linejoin:miter;stroke-miterlimit:4;stroke-dasharray:none;stroke-opacity:1;paint-order:stroke fill markers" />
      <ellipse
         ry="0.55978239"
         rx="0.55978233"
         cy="242.32372"
         cx="-143.09883"
         id="path996-7-8"
         style="fill:#ffffff;fill-opacity:1;stroke:none;stroke-width:0.0872144;stroke-linecap:square;stroke-linejoin:miter;stroke-miterlimit:4;stroke-dasharray:none;stroke-opacity:1;paint-order:stroke fill markers" />
    </g>
    <g
       id="g1882"
       transform="matrix(0.4,0,0,0.4,136.66178,83.920088)">
      <path
         sodipodi:nodetypes="cccccc"
         inkscape:connector-curvature="0"
         id="rect1141"
         d="m -17.82626,278.64251 -0.0426,18.39433 -85.90939,-0.18088 0.0631,-18.21345 c 9.554336,-13.2973 79.11493,-12.71003 85.88877,0 z"
         style="fill:#f9f9f9;fill-opacity:1;stroke:none;stroke-width:1.40612757;stroke-linecap:round;stroke-linejoin:round;stroke-miterlimit:4;stroke-dasharray:none;stroke-opacity:1;paint-order:stroke fill markers" />
      <rect
         transform="matrix(0.72554082,-0.68817914,0.72554082,0.68817914,0,0)"
         ry="0"
         y="152.72345"
         x="-249.01071"
         height="12.976423"
         width="13.078055"
         id="rect1160"
         style="fill:#ff8080;fill-opacity:1;stroke:none;stroke-width:0.82331783;stroke-linecap:round;stroke-linejoin:round;stroke-miterlimit:4;stroke-dasharray:none;stroke-opacity:1;paint-order:stroke fill markers" />
      <path
         inkscape:connector-curvature="0"
         id="path856-2"
         d="m -68.207721,250.75094 -0.02222,0.29455 c -0.10391,1.39236 -0.422738,3.85895 -0.70435,5.44567 -1.388131,7.82134 -4.121065,12.89298 -8.416541,15.59594 h 34.305912 c -4.77249,-2.98905 -7.654809,-8.99495 -8.845969,-18.40663 -0.09356,-0.73929 -0.158213,-1.34122 -0.293005,-2.73058 l -0.01912,-0.19895 h -8.002614 z"
         style="fill:#deaa87;fill-opacity:1;stroke:none;stroke-width:0.03189924;stroke-linecap:square;stroke-linejoin:miter;stroke-miterlimit:4;stroke-dasharray:none;stroke-opacity:1;paint-order:stroke fill markers" />
      <ellipse
         ry="24.460091"
         rx="19.109446"
         cy="238.63255"
         cx="-60.695564"
         id="path825-5"
         style="fill:#e9c6af;fill-opacity:1;stroke:none;stroke-width:10.0892725;stroke-linecap:round;stroke-linejoin:round;stroke-miterlimit:4;stroke-dasharray:none;stroke-opacity:1;paint-order:stroke fill markers" />
      <path
         inkscape:connector-curvature="0"
         id="path825-4-4"
         d="m -60.695486,214.17241 v 48.92017 a 19.109446,24.46009 0 0 1 -19.109516,-24.46007 19.109446,24.46009 0 0 1 19.109516,-24.4601 z"
         style="fill:#deaa87;fill-opacity:1;stroke:none;stroke-width:10.0892725;stroke-linecap:round;stroke-linejoin:round;stroke-miterlimit:4;stroke-dasharray:none;stroke-opacity:1;paint-order:stroke fill markers" />
      <path
         inkscape:connector-curvature="0"
         id="path975-18"
         d="m -69.814915,240.43099 c -0.98998,-0.0825 -2.14266,-0.64794 -3.61502,-1.77271 -0.61269,-0.46806 -1.33491,-1.06742 -1.31151,-1.08845 0.10053,-0.0903 1.13403,-0.90939 1.41278,-1.11978 1.24696,-0.94106 2.22278,-1.45373 3.13909,-1.64909 0.33585,-0.0716 1.01824,-0.0712 1.35979,6e-4 0.89952,0.18929 1.81672,0.66972 3.08123,1.61344 0.56607,0.42248 1.44659,1.13822 1.44659,1.1759 0,0.0375 -0.84227,0.72193 -1.44659,1.17795 -1.66067,1.25315 -2.89968,1.75959 -4.06636,1.66214 z"
         style="fill:#ffffff;fill-opacity:1;stroke:none;stroke-width:0.02897732;stroke-linecap:square;stroke-linejoin:miter;stroke-miterlimit:4;stroke-dasharray:none;stroke-opacity:1;paint-order:stroke fill markers" />
      <circle
         r="1.6214902"
         cy="238.11447"
         cx="-69.233948"
         id="path996-21"
         style="fill:#000000;fill-opacity:1;stroke:none;stroke-width:0.25262904;stroke-linecap:square;stroke-linejoin:miter;stroke-miterlimit:4;stroke-dasharray:none;stroke-opacity:1;paint-order:stroke fill markers" />
      <ellipse
         ry="0.55978239"
         rx="0.55978233"
         cy="237.82997"
         cx="-68.761475"
         id="path996-7-7"
         style="fill:#ffffff;fill-opacity:1;stroke:none;stroke-width:0.0872144;stroke-linecap:square;stroke-linejoin:miter;stroke-miterlimit:4;stroke-dasharray:none;stroke-opacity:1;paint-order:stroke fill markers" />
      <path
         inkscape:connector-curvature="0"
         id="path1149-8-0"
         d="m -61.298517,255.94637 c -1.589833,-0.29376 -3.358724,-1.61449 -5.402036,-4.03342 -0.625549,-0.74054 -1.235576,-1.57663 -1.338746,-1.83485 l -0.04388,-0.10975 h 7.594118 7.594116 l -0.131102,0.25627 c -0.330958,0.64705 -1.905703,2.4245 -3.105035,3.50474 -1.01437,0.9136 -2.357576,1.77366 -3.199832,2.04883 -0.721504,0.23558 -1.323759,0.2873 -1.967598,0.16836 z"
         style="fill:#ffffff;fill-opacity:1;stroke:none;stroke-width:0.05601124;stroke-linecap:round;stroke-linejoin:round;stroke-miterlimit:4;stroke-dasharray:none;stroke-opacity:1;paint-order:stroke fill markers" />
      <path
         inkscape:connector-curvature="0"
         id="path1149-83"
         d="m -67.44282,251.19077 c 0.201478,0.26489 0.419832,0.54276 0.649984,0.81521 0.943759,1.11724 1.828662,1.99726 2.664834,2.65296 h 6.86248 c 0.362698,-0.26288 0.719522,-0.54561 1.042351,-0.83638 0.829804,-0.74738 1.830585,-1.82218 2.483515,-2.63179 z"
         style="fill:#ffaaaa;fill-opacity:1;stroke:none;stroke-width:0.05601124;stroke-linecap:round;stroke-linejoin:round;stroke-miterlimit:4;stroke-dasharray:none;stroke-opacity:1;paint-order:stroke fill markers" />
      <path
         inkscape:connector-curvature="0"
         id="path1136-1"
         d="m -68.388339,249.91354 c 0.107806,0.33406 0.215914,0.66811 1.477793,2.09758 1.261887,1.4295 3.678119,3.9543 6.179959,3.9514 2.501837,-0.003 5.088406,-2.53301 6.425924,-3.96263 1.337521,-1.4296 1.42553,-1.75772 1.513498,-2.08635 z"
         style="fill:none;stroke:#ff7daa;stroke-width:0.65611392;stroke-linecap:butt;stroke-linejoin:round;stroke-miterlimit:4;stroke-dasharray:none;stroke-opacity:1" />
      <path
         sodipodi:nodetypes="ccccc"
         inkscape:original-d="m -79.332721,232.63762 c 0,0 -2.377611,3.40898 -3.267912,4.68532 0.510877,0.81914 1.250134,2.00546 1.874801,3.00857 0.430434,-0.0583 1.290512,-0.17399 1.290512,-0.17399 z"
         inkscape:path-effect="#path-effect1029"
         inkscape:connector-curvature="0"
         id="path1027"
         d="m -79.332721,232.63762 c -1.089304,1.56177 -2.377665,3.40894 -2.567504,4.4568 -0.189839,1.04785 0.54942,2.23417 1.077141,2.70661 0.527721,0.47244 0.957593,0.41449 1.387764,0.35649 0,0 0.102599,-7.5199 0.102599,-7.5199 z"
         style="fill:#deaa87;fill-opacity:1;stroke:none;stroke-width:0.26458332px;stroke-linecap:butt;stroke-linejoin:miter;stroke-opacity:1" />
      <path
         sodipodi:nodetypes="ccccc"
         inkscape:original-d="m -42.26214,233.68965 c 0,0 2.37761,3.40898 3.26791,4.68532 -0.51088,0.81914 -1.25013,2.00546 -1.8748,3.00857 -0.43043,-0.0583 -1.29051,-0.17399 -1.29051,-0.17399 z"
         inkscape:path-effect="#path-effect1029-8"
         inkscape:connector-curvature="0"
         id="path1027-1"
         d="m -42.26214,233.68965 c 1.089303,1.56177 2.377664,3.40894 2.567502,4.4568 0.189838,1.04785 -0.549419,2.23417 -1.077138,2.70661 -0.52772,0.47244 -0.957594,0.41449 -1.387764,0.35649 0,0 -0.1026,-7.5199 -0.1026,-7.5199 z"
         style="fill:#e9c6af;fill-opacity:1;stroke:none;stroke-width:0.26458332px;stroke-linecap:butt;stroke-linejoin:miter;stroke-opacity:1" />
      <rect
         ry="1.0011563"
         y="231.61021"
         x="-80.149132"
         height="10.679"
         width="2.6359999"
         id="rect1076"
         style="fill:#ba7b08;fill-opacity:1;stroke:none;stroke-width:0.42952535;stroke-linecap:square;stroke-linejoin:round;stroke-miterlimit:4;stroke-dasharray:none;stroke-opacity:1;paint-order:stroke fill markers" />
      <rect
         ry="1.0011655"
         y="231.61012"
         x="-44.08696"
         height="10.679098"
         width="2.6363363"
         id="rect1076-2"
         style="fill:#db9310;fill-opacity:1;stroke:none;stroke-width:0.4295547;stroke-linecap:square;stroke-linejoin:round;stroke-miterlimit:4;stroke-dasharray:none;stroke-opacity:1;paint-order:stroke fill markers" />
      <path
         sodipodi:nodetypes="ccccccccccc"
         inkscape:connector-curvature="0"
         d="m -67.577401,223.63819 c -3.306859,1.31483 -6.88786,4.85679 -9.90232,7.83839 0,0 -3.301275,0.4657 -3.301275,0.4657 0.475004,-4.96836 0.950006,-9.93669 4.493911,-13.83241 3.543905,-3.89572 10.155357,-6.7182 16.290934,-6.4656 6.135577,0.25261 11.79433,3.58024 14.916224,7.47273 3.121893,3.8925 3.706824,8.35018 4.291727,12.80765 -1.37272,-0.19988 -2.745223,-0.39974 -4.218879,-1.2317 -1.473656,-0.83197 -3.362754,-2.58865 -4.448645,-3.86394 -1.085891,-1.27529 -2.453625,-3.34345 -3.593538,-5.06713 -5.129026,0.25664 -11.22128,0.56147 -14.528139,1.87631 z"
         inkscape:original-d="m -68.436341,222.53179 c -2.447922,2.42123 -9.04338,8.94479 -9.04338,8.94479 l -3.301275,0.4657 c 0,0 0.950243,-9.93667 1.425013,-14.90508 6.612749,-2.82318 13.2242,-5.64566 19.836199,-8.46822 5.659391,3.32759 11.318144,6.65522 16.976874,9.98325 0.58517,4.45723 1.75471,13.37242 1.75471,13.37242 0,0 -2.74518,-0.40003 -4.11816,-0.59965 -1.574123,-1.46429 -3.463222,-3.22097 -4.723162,-4.39209 -0.911785,-1.37939 -3.41974,-5.17103 -3.41974,-5.17103 0,0 -11.221292,0.56122 -15.387079,0.76991 z"
         inkscape:path-effect="#path-effect1024"
         style="fill:#ba7b08;fill-opacity:1;stroke:none;stroke-width:1;stroke-linecap:butt;stroke-linejoin:miter;stroke-miterlimit:4;stroke-dasharray:none;stroke-opacity:1"
         id="path1022" />
      <path
         id="path1229-9"
         d="m -73.554166,231.05003 c -0.272682,0.002 -0.544353,0.007 -0.813903,0.0139 -2.413283,0.0637 -3.461501,0.17821 -6.545337,0.71468 -0.0711,0.0124 -0.07449,0.0173 -0.05633,0.0884 0.01058,0.0414 0.129879,0.58072 0.2651,1.19838 l 0.24598,1.12292 0.0987,5.3e-4 c 0.274262,0.001 0.614217,0.14551 0.814938,0.34623 0.219988,0.22 0.271002,0.36609 0.62787,1.79473 0.414139,1.6579 0.572566,2.22863 0.841292,3.03547 0.324388,0.97397 0.572252,1.53812 0.82889,1.88412 0.281979,0.38016 0.747805,0.80325 1.225248,1.11311 0.991428,0.64344 2.016255,0.90701 4.023527,1.0356 h 5.29e-4 c 0.3176,0.0203 1.576917,-0.009 1.909445,-0.0444 1.228545,-0.13133 2.168755,-0.36967 3.062862,-0.77618 1.140266,-0.51843 1.748276,-1.07877 2.637565,-2.43138 0.570894,-0.86834 1.071536,-1.85752 1.877922,-3.70985 0.452707,-1.0399 0.501605,-1.13014 0.728636,-1.3379 0.228534,-0.20914 0.661003,-0.378 0.971518,-0.38086 h 0.06615 c 0.311039,0 0.748782,0.17045 0.979268,0.38137 0.227031,0.20776 0.276447,0.29851 0.729155,1.33842 0.806384,1.85233 1.307025,2.841 1.877922,3.70934 0.889289,1.35261 1.497298,1.91295 2.637565,2.43138 0.894112,0.4065 1.834317,0.64485 3.062862,0.77617 0.332523,0.0356 1.591842,0.0648 1.909445,0.0445 2.007269,-0.12858 3.032096,-0.39216 4.023527,-1.0356 0.47744,-0.30986 0.943266,-0.73346 1.225248,-1.11363 0.256638,-0.346 0.505015,-0.90963 0.829405,-1.8836 0.268724,-0.80684 0.426633,-1.37758 0.840777,-3.03547 0.356865,-1.42865 0.408395,-1.57474 0.628386,-1.79473 0.20072,-0.20072 0.540673,-0.34524 0.814935,-0.34623 l 0.09819,-5.3e-4 0.245977,-1.12293 c 0.135224,-0.61766 0.254511,-1.15693 0.265102,-1.19838 0.01815,-0.0711 0.01527,-0.076 -0.05581,-0.0884 -3.083838,-0.53647 -4.132053,-0.65095 -6.545336,-0.71469 -2.156399,-0.057 -4.443976,0.0433 -6.368603,0.27906 -1.907662,0.23368 -3.223316,0.48251 -5.202267,0.98391 -0.974143,0.24682 -1.230542,0.29389 -1.719791,0.31626 l -0.299207,0.0139 -0.310576,-0.0145 c -0.489249,-0.0224 -0.746165,-0.0694 -1.720307,-0.31625 -1.978951,-0.5014 -3.294089,-0.75024 -5.201751,-0.98392 -1.684049,-0.20626 -3.645932,-0.30878 -5.5547,-0.29301 z m 1.580267,1.05679 c 2.472049,-0.0256 3.699203,0.0471 4.996592,0.29507 1.522042,0.29096 2.329185,0.76426 2.739885,1.60662 0.31863,0.65353 0.315825,1.39945 -0.01085,2.69234 -0.116515,0.46112 -0.357359,1.29292 -0.475424,1.6428 -0.356577,1.05668 -0.866678,1.88271 -1.593184,2.57968 -0.944999,0.90658 -1.964751,1.30428 -3.771347,1.4702 -0.393335,0.0364 -1.946068,0.0663 -2.245857,0.0439 -0.488524,-0.0366 -0.779243,-0.0642 -0.996839,-0.0956 -1.153284,-0.16625 -2.066933,-0.57469 -2.649969,-1.18494 -0.414102,-0.43344 -0.687337,-0.96907 -1.02009,-1.99729 -0.741741,-2.29199 -0.863113,-4.40211 -0.319363,-5.56245 0.409901,-0.8747 1.107562,-1.24145 2.643767,-1.38958 0.645438,-0.0623 1.292114,-0.0862 2.702679,-0.10077 z m 22.402765,5.3e-4 c 1.41056,0.0146 2.056728,0.0385 2.70216,0.10077 1.536208,0.14812 2.233867,0.51488 2.643767,1.38958 0.543751,1.16034 0.422897,3.27047 -0.318844,5.56245 -0.332753,1.02822 -0.605988,1.56385 -1.020093,1.99729 -0.583033,0.61025 -1.496682,1.01869 -2.649966,1.18494 -0.217599,0.0314 -0.508318,0.059 -0.996839,0.0956 -0.299791,0.0224 -1.852522,-0.008 -2.245857,-0.0439 v -5.3e-4 c -1.806599,-0.16591 -2.826862,-0.5631 -3.771863,-1.46968 -0.726504,-0.69697 -1.236091,-1.523 -1.592668,-2.57969 -0.118062,-0.34987 -0.358912,-1.18167 -0.475424,-1.64279 -0.326678,-1.29289 -0.330017,-2.03882 -0.01138,-2.69234 0.410697,-0.84236 1.218364,-1.31618 2.740403,-1.60714 1.29739,-0.24802 2.524541,-0.32011 4.996593,-0.29455 z"
         style="fill:#000000;fill-opacity:1;stroke:none;stroke-width:0.0240598;stroke-linecap:round;stroke-linejoin:miter;stroke-miterlimit:4;stroke-dasharray:none;stroke-opacity:1;paint-order:stroke fill markers"
         inkscape:connector-curvature="0" />
      <path
         inkscape:connector-curvature="0"
         id="path975-1-6"
         d="m -52.222425,240.59929 c -0.98998,-0.0828 -2.14266,-0.64798 -3.61502,-1.77275 -0.61269,-0.46806 -1.3349,-1.06742 -1.31151,-1.08841 0.10053,-0.0903 1.13403,-0.90942 1.41278,-1.11978 1.24696,-0.9411 2.22278,-1.45373 3.13909,-1.64913 0.33585,-0.0716 1.01824,-0.0712 1.3598,6.4e-4 0.899518,0.18929 1.816718,0.66968 3.081215,1.6134 0.56607,0.42248 1.4466,1.13823 1.4466,1.1759 0,0.0375 -0.84227,0.72193 -1.4466,1.17796 -1.660667,1.25315 -2.899675,1.75959 -4.066355,1.66213 z"
         style="fill:#ffffff;fill-opacity:1;stroke:none;stroke-width:0.02897732;stroke-linecap:square;stroke-linejoin:miter;stroke-miterlimit:4;stroke-dasharray:none;stroke-opacity:1;paint-order:stroke fill markers" />
      <circle
         r="1.6214902"
         cy="238.28273"
         cx="-51.641449"
         id="path996-2-7"
         style="fill:#000000;fill-opacity:1;stroke:none;stroke-width:0.25262904;stroke-linecap:square;stroke-linejoin:miter;stroke-miterlimit:4;stroke-dasharray:none;stroke-opacity:1;paint-order:stroke fill markers" />
      <ellipse
         ry="0.55978239"
         rx="0.55978233"
         cy="237.99825"
         cx="-51.168991"
         id="path996-7-8-6"
         style="fill:#ffffff;fill-opacity:1;stroke:none;stroke-width:0.0872144;stroke-linecap:square;stroke-linejoin:miter;stroke-miterlimit:4;stroke-dasharray:none;stroke-opacity:1;paint-order:stroke fill markers" />
      <path
         id="path1059"
         d="m -65.980468,245.12825 c -0.816433,0.0113 -1.60691,0.10985 -2.338874,0.37258 -1.508017,0.54129 -2.999817,3.75585 -2.999817,3.75585 0,0 3.648903,-1.48036 5.61826,-1.87069 1.469245,-0.29121 3.263244,-0.27856 4.801257,-0.19947 v 0.0248 c 0.0824,-0.005 0.179914,-0.009 0.265101,-0.0134 0.02686,0.002 0.05705,0.002 0.08371,0.004 v -0.008 c 1.563362,-0.0873 3.530369,-0.15686 5.002278,0.13488 1.969357,0.39033 5.417759,1.93786 5.417759,1.93786 0,0 -1.492319,-3.21455 -3.000335,-3.75584 -2.233935,-0.80186 -5.009134,-0.076 -7.419702,-0.007 v -0.003 c -1.710553,-1.8e-4 -3.633489,-0.39749 -5.429642,-0.37259 z"
         style="fill:#db9310;fill-opacity:1;stroke:none;stroke-width:0.26458332px;stroke-linecap:butt;stroke-linejoin:miter;stroke-opacity:1"
         inkscape:connector-curvature="0" />
      <path
         inkscape:original-d="m -57.067712,230.45974 c 1.848879,-0.84662 3.697494,-1.69297 5.545841,-2.53906 2.449814,0.95729 4.900201,1.91517 7.349911,2.87315"
         inkscape:path-effect="#path-effect1095"
         inkscape:connector-curvature="0"
         id="path1093"
         d="m -57.067712,230.45974 c 1.848934,-0.8465 3.697547,-1.69285 5.846539,-1.63715 2.148992,0.0557 4.599379,1.01358 7.049213,1.97124"
         style="fill:none;stroke:#db9310;stroke-width:1;stroke-linecap:round;stroke-linejoin:miter;stroke-miterlimit:4;stroke-dasharray:none;stroke-opacity:1" />
      <path
         inkscape:original-d="m -64.116865,230.45974 c -1.84888,-0.84662 -3.69749,-1.69297 -5.54584,-2.53906 -2.44981,0.95729 -4.9002,1.91517 -7.34991,2.87315"
         inkscape:path-effect="#path-effect1095-8"
         inkscape:connector-curvature="0"
         id="path1093-2"
         d="m -64.116865,230.45974 c -1.848935,-0.8465 -3.697544,-1.69285 -5.846535,-1.63715 -2.148992,0.0557 -4.599381,1.01358 -7.049215,1.97124"
         style="fill:none;stroke:#ba7b08;stroke-width:1;stroke-linecap:round;stroke-linejoin:miter;stroke-miterlimit:4;stroke-dasharray:none;stroke-opacity:1" />
      <path
         sodipodi:nodetypes="ccccc"
         inkscape:connector-curvature="0"
         id="path1133"
         d="m -72.33055,263.60116 -13.046898,8.0849 4.660764,10.40847 19.785845,-9.82994 z"
         style="fill:#e6e6e6;fill-opacity:1;stroke:none;stroke-width:0.2860969px;stroke-linecap:butt;stroke-linejoin:miter;stroke-opacity:1" />
      <path
         sodipodi:nodetypes="ccccc"
         inkscape:connector-curvature="0"
         id="path1133-5"
         d="m -48.13597,263.57528 13.0469,8.0849 -4.66077,10.40847 -19.785838,-9.82994 z"
         style="fill:#e6e6e6;fill-opacity:1;stroke:none;stroke-width:0.2860969px;stroke-linecap:butt;stroke-linejoin:miter;stroke-opacity:1" />
      <path
         sodipodi:nodetypes="ccccc"
         inkscape:connector-curvature="0"
         id="rect1162"
         d="m -65.286252,280.10505 h 10.156242 l 1.403165,16.70435 H -66.35533 Z"
         style="fill:#ff8080;fill-opacity:1;stroke:none;stroke-width:0.92057461;stroke-linecap:round;stroke-linejoin:round;stroke-miterlimit:4;stroke-dasharray:none;stroke-opacity:1;paint-order:stroke fill markers" />
      <path
         sodipodi:nodetypes="cccccccccsc"
         inkscape:connector-curvature="0"
         d="m -50.105574,214.75402 c 1.164702,0.76996 2.413488,1.59551 3.264551,2.3264 0.851062,0.73089 1.458853,1.4618 2.23676,2.55471 0.777907,1.0929 1.520608,2.28755 1.930485,3.36762 0.409876,1.08008 0.952874,3.29601 1.29551,5.0375 0.342635,1.74149 0.457627,2.73738 0.59007,3.8844 -1.37272,-0.19988 -2.745224,-0.39974 -4.218879,-1.2317 -1.473656,-0.83197 -3.362755,-2.58865 -4.448646,-3.86394 -1.08589,-1.27529 -2.453625,-3.34345 -3.593539,-5.06713 0.116149,-1.58151 0.232319,-3.16331 0.723066,-4.33127 0.490747,-1.16796 1.355542,-1.92215 2.220622,-2.67659 z"
         inkscape:original-d="m -50.105574,214.75402 c 0,0 2.413691,1.5952 3.494106,2.30988 0.621792,0.74717 1.229585,1.47808 2.009552,2.41663 0.77587,1.24731 1.51857,2.44196 1.997633,3.21323 0.340692,1.38899 0.88369,3.60492 1.418755,5.78982 0.150187,1.29813 0.39733,3.44107 0.39733,3.44107 0,0 -2.745181,-0.40003 -4.11816,-0.59965 -1.574122,-1.46429 -3.463224,-3.22097 -4.723162,-4.39209 -0.911785,-1.37939 -3.419742,-5.17103 -3.419742,-5.17103 0,0 0.232563,-3.16329 0.348448,-4.74454 0.865346,-0.75471 2.59524,-2.26332 2.59524,-2.26332 z"
         inkscape:path-effect="#path-effect1024-1"
         style="fill:#db9310;fill-opacity:1;stroke:none;stroke-width:1;stroke-linecap:butt;stroke-linejoin:miter;stroke-miterlimit:4;stroke-dasharray:none;stroke-opacity:1"
         id="path1022-2" />
    </g>
    <g
       id="g1904"
       transform="matrix(0.4,0,0,0.4,37.878029,138.81326)">
      <path
         inkscape:connector-curvature="0"
         id="path856-2-0"
         d="m 60.191499,247.92354 -0.02222,0.36097 c -0.10391,1.70631 -0.422738,4.72906 -0.70435,6.67355 -1.388131,9.58489 -4.121065,15.80008 -8.416541,19.1125 H 85.3543 c -4.77249,-3.66302 -7.654809,-11.02312 -8.845969,-22.55694 -0.09356,-0.90598 -0.158213,-1.64364 -0.293005,-3.34627 l -0.01912,-0.24381 h -8.002614 z"
         style="fill:#deaa87;fill-opacity:1;stroke:none;stroke-width:0.03531289;stroke-linecap:square;stroke-linejoin:miter;stroke-miterlimit:4;stroke-dasharray:none;stroke-opacity:1;paint-order:stroke fill markers" />
      <path
         sodipodi:nodetypes="cccccccccc"
         inkscape:connector-curvature="0"
         id="rect1141-1"
         d="m 54.797187,267.1653 c -15.312263,0 -27.136646,4.35177 -30.112906,9.96358 l -0.06356,19.29443 85.909479,0.19172 0.17653,-19.88706 c -2.58087,-5.12997 -14.817403,-9.59894 -28.935493,-9.59894 0.01685,0.10133 0.02614,0.40328 0.02791,0.50482 4.7e-5,2.90485 -6.049471,5.25969 -13.511837,5.25963 -7.462166,-5e-5 -13.511369,-2.35486 -13.511321,-5.25963 2.65e-4,-0.17881 -0.02593,-0.29068 0.02119,-0.46855 z"
         style="fill:#f9f9f9;fill-opacity:1;stroke:none;stroke-width:1.44724894;stroke-linecap:round;stroke-linejoin:round;stroke-miterlimit:4;stroke-dasharray:none;stroke-opacity:1;paint-order:stroke fill markers" />
      <ellipse
         ry="24.460091"
         rx="19.109446"
         cy="238.21059"
         cx="67.703659"
         id="path825-5-1"
         style="fill:#e9c6af;fill-opacity:1;stroke:none;stroke-width:10.0892725;stroke-linecap:round;stroke-linejoin:round;stroke-miterlimit:4;stroke-dasharray:none;stroke-opacity:1;paint-order:stroke fill markers" />
      <path
         inkscape:connector-curvature="0"
         id="path825-4-4-1"
         d="m 67.703734,213.75044 v 48.92017 a 19.109446,24.46009 0 0 1 -19.109516,-24.46007 19.109446,24.46009 0 0 1 19.109516,-24.4601 z"
         style="fill:#deaa87;fill-opacity:1;stroke:none;stroke-width:10.0892725;stroke-linecap:round;stroke-linejoin:round;stroke-miterlimit:4;stroke-dasharray:none;stroke-opacity:1;paint-order:stroke fill markers" />
      <path
         inkscape:connector-curvature="0"
         id="path975-18-3"
         d="m 58.584305,240.00902 c -0.98998,-0.0825 -2.14266,-0.64794 -3.61502,-1.77271 -0.61269,-0.46806 -1.33491,-1.06742 -1.31151,-1.08845 0.10053,-0.0903 1.13403,-0.90939 1.41278,-1.11978 1.24696,-0.94106 2.22278,-1.45373 3.13909,-1.64909 0.33585,-0.0716 1.01824,-0.0712 1.35979,6e-4 0.89952,0.18929 1.81672,0.66972 3.08123,1.61344 0.56607,0.42248 1.44659,1.13822 1.44659,1.1759 0,0.0375 -0.84227,0.72193 -1.44659,1.17795 -1.66067,1.25315 -2.89968,1.75959 -4.06636,1.66214 z"
         style="fill:#ffffff;fill-opacity:1;stroke:none;stroke-width:0.02897732;stroke-linecap:square;stroke-linejoin:miter;stroke-miterlimit:4;stroke-dasharray:none;stroke-opacity:1;paint-order:stroke fill markers" />
      <circle
         r="1.6214902"
         cy="237.6925"
         cx="59.165272"
         id="path996-21-5"
         style="fill:#000000;fill-opacity:1;stroke:none;stroke-width:0.25262904;stroke-linecap:square;stroke-linejoin:miter;stroke-miterlimit:4;stroke-dasharray:none;stroke-opacity:1;paint-order:stroke fill markers" />
      <ellipse
         ry="0.55978239"
         rx="0.55978233"
         cy="237.408"
         cx="59.637745"
         id="path996-7-7-2"
         style="fill:#ffffff;fill-opacity:1;stroke:none;stroke-width:0.0872144;stroke-linecap:square;stroke-linejoin:miter;stroke-miterlimit:4;stroke-dasharray:none;stroke-opacity:1;paint-order:stroke fill markers" />
      <path
         inkscape:connector-curvature="0"
         id="path1149-8-0-8"
         d="m 67.100703,255.5244 c -1.589833,-0.29376 -3.358724,-1.61449 -5.402036,-4.03342 -0.625549,-0.74054 -1.235576,-1.57663 -1.338746,-1.83485 l -0.04388,-0.10975 h 7.594118 7.594116 l -0.131102,0.25627 c -0.330958,0.64705 -1.905703,2.4245 -3.105035,3.50474 -1.01437,0.9136 -2.357576,1.77366 -3.199832,2.04883 -0.721504,0.23558 -1.323759,0.2873 -1.967598,0.16836 z"
         style="fill:#ffffff;fill-opacity:1;stroke:none;stroke-width:0.05601124;stroke-linecap:round;stroke-linejoin:round;stroke-miterlimit:4;stroke-dasharray:none;stroke-opacity:1;paint-order:stroke fill markers" />
      <path
         inkscape:connector-curvature="0"
         id="path1149-83-1"
         d="m 60.9564,250.7688 c 0.201478,0.26489 0.419832,0.54276 0.649984,0.81521 0.943759,1.11724 1.828662,1.99726 2.664834,2.65296 h 6.86248 c 0.362698,-0.26288 0.719522,-0.54561 1.042351,-0.83638 0.829804,-0.74738 1.830585,-1.82218 2.483515,-2.63179 z"
         style="fill:#ffaaaa;fill-opacity:1;stroke:none;stroke-width:0.05601124;stroke-linecap:round;stroke-linejoin:round;stroke-miterlimit:4;stroke-dasharray:none;stroke-opacity:1;paint-order:stroke fill markers" />
      <path
         inkscape:connector-curvature="0"
         id="path1136-1-0"
         d="m 60.010881,249.49157 c 0.107806,0.33406 0.215914,0.66811 1.477793,2.09758 1.261887,1.4295 3.678119,3.9543 6.179959,3.9514 2.501837,-0.003 5.088406,-2.53301 6.425924,-3.96263 1.337521,-1.4296 1.42553,-1.75772 1.513498,-2.08635 z"
         style="fill:none;stroke:#ff7daa;stroke-width:0.65611392;stroke-linecap:butt;stroke-linejoin:round;stroke-miterlimit:4;stroke-dasharray:none;stroke-opacity:1" />
      <path
         sodipodi:nodetypes="ccccc"
         inkscape:original-d="m 49.066499,232.21565 c 0,0 -2.377611,3.40898 -3.267912,4.68532 0.510877,0.81914 1.250134,2.00546 1.874801,3.00857 0.430434,-0.0583 1.290512,-0.17399 1.290512,-0.17399 z"
         inkscape:path-effect="#path-effect1029-0"
         inkscape:connector-curvature="0"
         id="path1027-7"
         d="m 49.066499,232.21565 c -1.089304,1.56177 -2.377665,3.40894 -2.567504,4.4568 -0.189839,1.04785 0.54942,2.23417 1.077141,2.70661 0.527721,0.47244 0.957593,0.41449 1.387764,0.35649 0,0 0.102599,-7.5199 0.102599,-7.5199 z"
         style="fill:#deaa87;fill-opacity:1;stroke:none;stroke-width:0.26458332px;stroke-linecap:butt;stroke-linejoin:miter;stroke-opacity:1" />
      <path
         sodipodi:nodetypes="ccccc"
         inkscape:original-d="m 86.13708,233.26768 c 0,0 2.37761,3.40898 3.26791,4.68532 -0.51088,0.81914 -1.25013,2.00546 -1.8748,3.00857 -0.43043,-0.0583 -1.29051,-0.17399 -1.29051,-0.17399 z"
         inkscape:path-effect="#path-effect1029-8-4"
         inkscape:connector-curvature="0"
         id="path1027-1-1"
         d="m 86.13708,233.26768 c 1.089303,1.56177 2.377664,3.40894 2.567502,4.4568 0.189838,1.04785 -0.549419,2.23417 -1.077138,2.70661 -0.52772,0.47244 -0.957594,0.41449 -1.387764,0.35649 0,0 -0.1026,-7.5199 -0.1026,-7.5199 z"
         style="fill:#e9c6af;fill-opacity:1;stroke:none;stroke-width:0.26458332px;stroke-linecap:butt;stroke-linejoin:miter;stroke-opacity:1" />
      <path
         id="path1229-9-1"
         d="m 54.845054,230.62806 c -0.272682,0.002 -0.544353,0.007 -0.813903,0.0139 -2.413283,0.0637 -3.461501,0.17821 -6.545337,0.71468 -0.0711,0.0124 -0.07449,0.0173 -0.05633,0.0884 0.01058,0.0414 0.129879,0.58072 0.2651,1.19838 l 0.24598,1.12292 0.0987,5.3e-4 c 0.274262,10e-4 0.614217,0.14551 0.814938,0.34623 0.219988,0.22 0.271002,0.36609 0.62787,1.79473 0.414139,1.6579 0.572566,2.22863 0.841292,3.03547 0.324388,0.97397 0.572252,1.53812 0.82889,1.88412 0.281979,0.38016 0.747805,0.80325 1.225248,1.11311 0.991428,0.64344 2.016255,0.90701 4.023527,1.0356 h 5.29e-4 c 0.3176,0.0203 1.576917,-0.009 1.909445,-0.0444 1.228545,-0.13133 2.168755,-0.36967 3.062862,-0.77618 1.140266,-0.51843 1.748276,-1.07877 2.637565,-2.43138 0.570894,-0.86834 1.071536,-1.85752 1.877922,-3.70985 0.452707,-1.0399 0.501605,-1.13014 0.728636,-1.3379 0.228534,-0.20914 0.661003,-0.378 0.971518,-0.38086 h 0.06615 c 0.311039,0 0.748782,0.17045 0.979268,0.38137 0.227031,0.20776 0.276447,0.29851 0.729155,1.33842 0.806384,1.85233 1.307025,2.841 1.877922,3.70934 0.889289,1.35261 1.497298,1.91295 2.637565,2.43138 0.894112,0.4065 1.834317,0.64485 3.062862,0.77617 0.332523,0.0356 1.591842,0.0648 1.909445,0.0445 2.007269,-0.12858 3.032096,-0.39216 4.023527,-1.0356 0.47744,-0.30986 0.943266,-0.73346 1.225248,-1.11363 0.256638,-0.346 0.505015,-0.90963 0.829405,-1.8836 0.268724,-0.80684 0.426633,-1.37758 0.840777,-3.03547 0.356865,-1.42865 0.408395,-1.57474 0.628386,-1.79473 0.20072,-0.20072 0.540673,-0.34524 0.814935,-0.34623 l 0.09819,-5.3e-4 0.245977,-1.12293 c 0.135224,-0.61766 0.254511,-1.15693 0.265102,-1.19838 0.01815,-0.0711 0.01527,-0.076 -0.05581,-0.0884 -3.083838,-0.53647 -4.132053,-0.65095 -6.545336,-0.71469 -2.156399,-0.057 -4.443976,0.0433 -6.368603,0.27906 -1.907662,0.23368 -3.223316,0.48251 -5.202267,0.98391 -0.974143,0.24682 -1.230542,0.29389 -1.719791,0.31626 l -0.299207,0.0139 -0.310576,-0.0145 c -0.489249,-0.0224 -0.746165,-0.0694 -1.720307,-0.31625 -1.978951,-0.5014 -3.294089,-0.75024 -5.201751,-0.98392 -1.684049,-0.20626 -3.645932,-0.30878 -5.5547,-0.29301 z m 1.580267,1.05679 c 2.472049,-0.0256 3.699203,0.0471 4.996592,0.29507 1.522042,0.29096 2.329185,0.76426 2.739885,1.60662 0.31863,0.65353 0.315825,1.39945 -0.01085,2.69234 -0.116515,0.46112 -0.357359,1.29292 -0.475424,1.6428 -0.356577,1.05668 -0.866678,1.88271 -1.593184,2.57968 -0.944999,0.90658 -1.964751,1.30428 -3.771347,1.4702 -0.393335,0.0364 -1.946068,0.0663 -2.245857,0.0439 -0.488524,-0.0366 -0.779243,-0.0642 -0.996839,-0.0956 -1.153284,-0.16625 -2.066933,-0.57469 -2.649969,-1.18494 -0.414102,-0.43344 -0.687337,-0.96907 -1.02009,-1.99729 -0.741741,-2.29199 -0.863113,-4.40211 -0.319363,-5.56245 0.409901,-0.8747 1.107562,-1.24145 2.643767,-1.38958 0.645438,-0.0623 1.292114,-0.0862 2.702679,-0.10077 z m 22.402765,5.3e-4 c 1.41056,0.0146 2.056728,0.0385 2.70216,0.10077 1.536208,0.14812 2.233867,0.51488 2.643767,1.38958 0.543751,1.16034 0.422897,3.27047 -0.318844,5.56245 -0.332753,1.02822 -0.605988,1.56385 -1.020093,1.99729 -0.583033,0.61025 -1.496682,1.01869 -2.649966,1.18494 -0.217599,0.0314 -0.508318,0.059 -0.996839,0.0956 -0.299791,0.0224 -1.852522,-0.008 -2.245857,-0.0439 v -5.3e-4 c -1.806599,-0.16591 -2.826862,-0.5631 -3.771863,-1.46968 -0.726504,-0.69697 -1.236091,-1.523 -1.592668,-2.57969 -0.118062,-0.34987 -0.358912,-1.18167 -0.475424,-1.64279 -0.326678,-1.29289 -0.330017,-2.03882 -0.01138,-2.69234 0.410697,-0.84236 1.218364,-1.31618 2.740403,-1.60714 1.29739,-0.24802 2.524541,-0.32011 4.996593,-0.29455 z"
         style="fill:#000000;fill-opacity:1;stroke:none;stroke-width:0.0240598;stroke-linecap:round;stroke-linejoin:miter;stroke-miterlimit:4;stroke-dasharray:none;stroke-opacity:1;paint-order:stroke fill markers"
         inkscape:connector-curvature="0" />
      <path
         inkscape:connector-curvature="0"
         id="path975-1-6-9"
         d="m 76.176795,240.17732 c -0.98998,-0.0828 -2.14266,-0.64798 -3.61502,-1.77275 -0.61269,-0.46806 -1.3349,-1.06742 -1.31151,-1.08841 0.10053,-0.0903 1.13403,-0.90942 1.41278,-1.11978 1.24696,-0.9411 2.22278,-1.45373 3.13909,-1.64913 0.33585,-0.0716 1.01824,-0.0712 1.3598,6.4e-4 0.899518,0.18929 1.816718,0.66968 3.081215,1.6134 0.56607,0.42248 1.4466,1.13823 1.4466,1.1759 0,0.0375 -0.84227,0.72193 -1.4466,1.17796 -1.660667,1.25315 -2.899675,1.75959 -4.066355,1.66213 z"
         style="fill:#ffffff;fill-opacity:1;stroke:none;stroke-width:0.02897732;stroke-linecap:square;stroke-linejoin:miter;stroke-miterlimit:4;stroke-dasharray:none;stroke-opacity:1;paint-order:stroke fill markers" />
      <circle
         r="1.6214902"
         cy="237.86076"
         cx="76.757774"
         id="path996-2-7-4"
         style="fill:#000000;fill-opacity:1;stroke:none;stroke-width:0.25262904;stroke-linecap:square;stroke-linejoin:miter;stroke-miterlimit:4;stroke-dasharray:none;stroke-opacity:1;paint-order:stroke fill markers" />
      <ellipse
         ry="0.55978239"
         rx="0.55978233"
         cy="237.57628"
         cx="77.230232"
         id="path996-7-8-6-5"
         style="fill:#ffffff;fill-opacity:1;stroke:none;stroke-width:0.0872144;stroke-linecap:square;stroke-linejoin:miter;stroke-miterlimit:4;stroke-dasharray:none;stroke-opacity:1;paint-order:stroke fill markers" />
      <path
         inkscape:original-d="m 71.331508,230.03777 c 1.848879,-0.84662 3.697494,-1.69297 5.545841,-2.53906 2.449814,0.95729 4.900201,1.91517 7.349911,2.87315"
         inkscape:path-effect="#path-effect1095-4"
         inkscape:connector-curvature="0"
         id="path1093-7"
         d="m 71.331508,230.03777 c 1.848934,-0.8465 3.697547,-1.69285 5.846539,-1.63715 2.148992,0.0557 4.599379,1.01358 7.049213,1.97124"
         style="fill:none;stroke:#0000ff;stroke-width:1;stroke-linecap:round;stroke-linejoin:miter;stroke-miterlimit:4;stroke-dasharray:none;stroke-opacity:1" />
      <path
         inkscape:original-d="m 64.282355,230.03777 c -1.84888,-0.84662 -3.69749,-1.69297 -5.54584,-2.53906 -2.44981,0.95729 -4.9002,1.91517 -7.34991,2.87315"
         inkscape:path-effect="#path-effect1095-8-7"
         inkscape:connector-curvature="0"
         id="path1093-2-4"
         d="m 64.282355,230.03777 c -1.848935,-0.8465 -3.697544,-1.69285 -5.846535,-1.63715 -2.148992,0.0557 -4.599381,1.01358 -7.049215,1.97124"
         style="fill:none;stroke:#0000ff;stroke-width:1;stroke-linecap:round;stroke-linejoin:miter;stroke-miterlimit:4;stroke-dasharray:none;stroke-opacity:1" />
      <path
         sodipodi:nodetypes="ccccccccccccccccccccccccc"
         inkscape:original-d="m 57.641368,221.0268 c 0,0 2.64e-4,2.91866 0,4.37839 -1.774511,0.47868 -5.323359,1.43658 -5.323359,1.43658 v 5.57925 l -3.548549,-0.95083 c 0,0 2.64e-4,-12.93031 0,-19.39507 3.051937,-1.58351 6.103858,-3.1669 9.15539,-4.74995 3.737141,-1.22791 11.21179,-3.6833 11.21179,-3.6833 l -4.623493,4.75852 c 0,0 4.059034,-3.0142 6.088152,-4.5209 2.106346,-0.20118 6.318245,-0.60275 6.318245,-0.60275 l -5.628535,5.67775 c 0,0 4.612947,-3.53252 6.919026,-5.29838 2.385546,-0.17891 7.155838,-0.53593 7.155838,-0.53593 l -8.731201,6.23661 c 0,0 3.622536,-1.81187 5.433407,-2.71741 1.66854,0.31809 5.004826,0.95507 5.004826,0.95507 l -5.90252,3.46327 c 0,0 3.969014,-2.7e-4 5.953125,0 -0.06272,6.81815 -0.188987,20.45796 -0.188987,20.45796 l -3.936812,1.05487 v -5.44884 c 0,0 -4.178766,-1.0082 -6.268545,-1.51191 2.64e-4,-1.52805 0,-4.58296 0,-4.58296 z"
         inkscape:path-effect="#path-effect1673"
         inkscape:connector-curvature="0"
         id="path1671"
         d="m 57.641368,221.0268 c 0,1.45946 0,2.91866 -0.887231,3.88796 -0.887231,0.96929 -2.661675,1.44815 -4.436128,1.92701 0,0 0,5.57925 0,5.57925 0,0 -3.548549,-0.95083 -3.548549,-0.95083 0,-6.46502 0,-12.93031 1.525993,-16.9544 1.525993,-4.02409 4.577918,-5.60747 7.972255,-7.01292 3.394337,-1.40544 7.131669,-2.63323 10.868932,-3.861 0,0 -4.623493,4.75852 -4.623493,4.75852 2.029384,-1.50697 4.059067,-3.01416 6.126794,-3.868 2.067727,-0.85384 4.173521,-1.05473 6.279603,-1.25565 0,0 -5.628535,5.67775 -5.628535,5.67775 2.306342,-1.76613 4.612979,-3.53248 6.958784,-4.50476 2.345806,-0.97228 4.730801,-1.15091 7.11608,-1.32955 0,0 -8.731201,6.23661 -8.731201,6.23661 1.811136,-0.9058 3.622588,-1.81177 5.362238,-2.10539 1.739651,-0.29362 3.40772,0.0247 5.075995,0.34305 0,0 -5.90252,3.46327 -5.90252,3.46327 1.984375,0 3.969014,0 4.929577,3.40907 0.960563,3.40908 0.897557,10.22957 0.834561,17.04889 0,0 -3.936812,1.05487 -3.936812,1.05487 0,0 0,-5.44884 0,-5.44884 -2.089515,-0.50397 -4.17884,-1.00789 -5.223692,-2.02393 -1.044853,-1.01603 -1.044853,-2.54329 -1.044853,-4.07094 0,0 -19.087798,-4e-5 -19.087798,-4e-5 z"
         style="fill:#0000ff;fill-opacity:1;stroke:none;stroke-width:0.26458332px;stroke-linecap:butt;stroke-linejoin:miter;stroke-opacity:1" />
      <path
         inkscape:connector-curvature="0"
         id="path1675"
         d="m 53.765503,267.20395 c -0.02367,0.14151 -0.04049,0.28385 -0.04349,0.42681 a 0.50453437,0.53125038 0 0 0 -5.36e-4,0.0119 c -1.7e-5,0.97881 0.48827,1.87676 1.265985,2.63044 0.777707,0.75369 1.85655,1.39619 3.167112,1.93338 2.621123,1.07438 6.179641,1.72137 10.109095,1.7214 3.929559,6e-5 7.488398,-0.64702 10.109629,-1.7214 1.310616,-0.53719 2.389363,-1.17968 3.167114,-1.93338 0.777746,-0.75369 1.265999,-1.65162 1.265985,-2.63044 a 0.50453437,0.53125038 0 0 0 0,-0.008 c -0.0023,-0.14404 -0.01943,-0.28747 -0.04294,-0.4302 h -0.980361 v 0.49465 c -0.01757,0.59182 -0.302723,1.18849 -0.926136,1.79261 -0.642978,0.6231 -1.620029,1.22075 -2.849811,1.7248 -2.459556,1.00811 -5.920044,1.64908 -9.74347,1.64903 -3.823325,-10e-6 -7.283486,-0.64093 -9.742936,-1.64903 -1.229726,-0.50405 -2.206866,-1.10173 -2.849812,-1.7248 -0.623378,-0.60411 -0.908554,-1.20079 -0.926133,-1.79261 h -5.36e-4 v -0.49465 z"
         style="color:#000000;font-style:normal;font-variant:normal;font-weight:normal;font-stretch:normal;font-size:medium;line-height:normal;font-family:sans-serif;font-variant-ligatures:normal;font-variant-position:normal;font-variant-caps:normal;font-variant-numeric:normal;font-variant-alternates:normal;font-feature-settings:normal;text-indent:0;text-align:start;text-decoration:none;text-decoration-line:none;text-decoration-style:solid;text-decoration-color:#000000;letter-spacing:normal;word-spacing:normal;text-transform:none;writing-mode:lr-tb;direction:ltr;text-orientation:mixed;dominant-baseline:auto;baseline-shift:baseline;text-anchor:start;white-space:normal;shape-padding:0;clip-rule:nonzero;display:inline;overflow:visible;visibility:visible;opacity:1;isolation:auto;mix-blend-mode:normal;color-interpolation:sRGB;color-interpolation-filters:linearRGB;solid-color:#000000;solid-opacity:1;vector-effect:none;fill:#0000ff;fill-opacity:1;fill-rule:nonzero;stroke:none;stroke-width:1.03533661;stroke-linecap:round;stroke-linejoin:round;stroke-miterlimit:4;stroke-dasharray:none;stroke-dashoffset:0;stroke-opacity:1;paint-order:stroke fill markers;color-rendering:auto;image-rendering:auto;shape-rendering:auto;text-rendering:auto;enable-background:accumulate" />
    </g>
    <path
       style="fill:none;stroke:#000000;stroke-width:0.26458332px;stroke-linecap:butt;stroke-linejoin:miter;stroke-opacity:1"
       d="m 51.000967,200.36646 c 10.780135,0 21.560006,0 32.339613,0"
       id="path1942"
       inkscape:connector-curvature="0"
       inkscape:path-effect="#path-effect1944"
       inkscape:original-d="m 51.000967,200.36646 c 10.780135,-2.6e-4 21.560006,-2.6e-4 32.339613,0" />
    <path
       style="fill:none;stroke:#000000;stroke-width:0.26458332px;stroke-linecap:butt;stroke-linejoin:miter;stroke-opacity:1"
       d="m 23.472207,242.86232 v 1.33635 23.25245 l 21.114291,0.26726"
       id="path1946"
       inkscape:connector-curvature="0" />
    <path
       style="fill:none;stroke:#000000;stroke-width:0.26458332px;stroke-linecap:butt;stroke-linejoin:miter;stroke-opacity:1"
       d="M 112.47296,239.65509 V 265.8475 H 93.496822"
       id="path1948"
       inkscape:connector-curvature="0" />
    <path
       style="fill:none;stroke:#000000;stroke-width:0.26458332px;stroke-linecap:butt;stroke-linejoin:miter;stroke-opacity:1"
       d="M 66.769869,200.63374 V 213.1954"
       id="path1950"
       inkscape:connector-curvature="0" />
    <g
       id="g2044">
      <path
         id="rect4518"
         transform="matrix(0.26458333,0,0,0.26458333,0,161.53335)"
         d="M 49.076172 158.87109 C 42.065492 158.87109 36.421875 164.51471 36.421875 171.52539 L 36.421875 236.09961 C 36.421875 243.11029 42.065492 248.75391 49.076172 248.75391 L 124.73242 248.75391 C 131.7431 248.75391 137.38867 243.11029 137.38867 236.09961 L 137.38867 171.52539 C 137.38867 164.51471 131.7431 158.87109 124.73242 158.87109 L 49.076172 158.87109 z M 59.667969 171.45312 L 114.14062 171.45312 C 119.18831 171.45312 123.25195 175.51676 123.25195 180.56445 L 123.25195 227.05859 C 123.25195 232.10628 119.18831 236.16992 114.14062 236.16992 L 59.667969 236.16992 C 54.620279 236.16992 50.556641 232.10628 50.556641 227.05859 L 50.556641 180.56445 C 50.556641 175.51676 54.620279 171.45312 59.667969 171.45312 z "
         style="fill:#000000;fill-opacity:0.97777776;stroke:none;stroke-width:48.75655746;stroke-linecap:round;stroke-linejoin:round;stroke-miterlimit:4;stroke-dasharray:none;stroke-opacity:1;paint-order:stroke fill markers" />
      <path
         id="rect4546"
         d="m 6.0575326,229.0899 c -0.5838221,0 -1.1805199,0.45257 -1.3373859,1.01492 l -1.2939779,4.64055 c -0.1568661,0.56235 0.1866734,1.01492 0.7704956,1.01492 12.5313616,0 25.0627236,0 37.5940866,0 0.583824,0 0.927362,-0.45257 0.770495,-1.01492 l -1.294492,-4.64055 c -0.156866,-0.56235 -0.753049,-1.01492 -1.336871,-1.01492 -11.290783,0 -22.581567,0 -33.8723504,0 z"
         style="fill:#000000;fill-opacity:0.97777776;stroke:none;stroke-width:8.88235283;stroke-linecap:round;stroke-linejoin:round;stroke-miterlimit:4;stroke-dasharray:none;stroke-opacity:1;paint-order:stroke fill markers"
         inkscape:connector-curvature="0"
         sodipodi:nodetypes="ccccccccc" />
      <g
         aria-label="A"
         style="font-style:normal;font-weight:normal;font-size:10.58333302px;line-height:1.25;font-family:sans-serif;letter-spacing:0px;word-spacing:0px;fill:#000000;fill-opacity:1;stroke:none;stroke-width:0.26458332"
         id="text1962">
        <path
           d="M 24.311362,216.5258 H 21.72754 l -0.552938,1.62781 h 0.873332 v 0.89917 h -2.831868 v -0.89917 h 0.868164 l 1.963704,-5.4777 h -0.873332 v -0.81132 h 3.674195 v 0.81132 h -0.894003 l 2.010214,5.4777 h 0.806152 v 0.89917 h -2.816366 v -0.89917 h 0.894003 z m -0.268718,-0.84232 -0.956014,-3.00757 h -0.09819 l -0.992187,3.00757 z"
           style="font-style:normal;font-variant:normal;font-weight:normal;font-stretch:normal;font-family:Rockwell;-inkscape-font-specification:Rockwell;stroke-width:0.26458332"
           id="path2052" />
      </g>
    </g>
    <g
       id="g2038">
      <path
         id="rect4518-6"
         transform="matrix(0.26458333,0,0,0.26458333,0,161.53335)"
         d="M 387.26562 158.66602 C 380.25495 158.66602 374.61133 164.30963 374.61133 171.32031 L 374.61133 235.89453 C 374.61133 242.90521 380.25495 248.54883 387.26562 248.54883 L 462.92188 248.54883 C 469.93255 248.54883 475.57617 242.90521 475.57617 235.89453 L 475.57617 171.32031 C 475.57617 164.30963 469.93255 158.66602 462.92188 158.66602 L 387.26562 158.66602 z M 397.85742 171.25 L 452.33008 171.25 C 457.37777 171.25 461.44141 175.31364 461.44141 180.36133 L 461.44141 226.85547 C 461.44141 231.90316 457.37777 235.9668 452.33008 235.9668 L 397.85742 235.9668 C 392.80973 235.9668 388.74609 231.90316 388.74609 226.85547 L 388.74609 180.36133 C 388.74609 175.31364 392.80973 171.25 397.85742 171.25 z "
         style="fill:#000000;fill-opacity:0.97777776;stroke:none;stroke-width:48.75655746;stroke-linecap:round;stroke-linejoin:round;stroke-miterlimit:4;stroke-dasharray:none;stroke-opacity:1;paint-order:stroke fill markers" />
      <path
         id="rect4546-04"
         d="m 95.536784,229.03575 c -0.583823,0 -1.18052,0.45257 -1.337386,1.01492 l -1.293978,4.64055 c -0.156866,0.56235 0.186673,1.01492 0.770495,1.01492 12.531365,0 25.062725,0 37.594085,0 0.58383,0 0.92736,-0.45257 0.7705,-1.01492 l -1.2945,-4.64055 c -0.15686,-0.56235 -0.75304,-1.01492 -1.33687,-1.01492 -11.29078,0 -22.58156,0 -33.872346,0 z"
         style="fill:#000000;fill-opacity:0.97777776;stroke:none;stroke-width:8.88235283;stroke-linecap:round;stroke-linejoin:round;stroke-miterlimit:4;stroke-dasharray:none;stroke-opacity:1;paint-order:stroke fill markers"
         inkscape:connector-curvature="0"
         sodipodi:nodetypes="ccccccccc" />
      <g
         aria-label="B"
         style="font-style:normal;font-weight:normal;font-size:10.58333302px;line-height:1.25;font-family:sans-serif;letter-spacing:0px;word-spacing:0px;fill:#000000;fill-opacity:1;stroke:none;stroke-width:0.26458332"
         id="text1962-9">
        <path
           d="m 110.6151,218.09946 v -5.38985 h -0.88367 v -0.89917 h 2.39262 q 0.98702,0 1.47795,0.11885 0.49609,0.11886 0.87333,0.60462 0.37724,0.48059 0.37724,1.13171 0,0.50126 -0.22738,0.90434 -0.22221,0.40307 -0.65629,0.60978 0.59945,0.2067 0.91984,0.6873 0.32556,0.47542 0.32556,1.09037 0,0.53226 -0.24288,0.96635 -0.23771,0.43408 -0.63562,0.67179 -0.39791,0.23771 -0.87333,0.32039 -0.47025,0.0827 -1.28674,0.0827 h -2.4443 v -0.89917 z m 1.0852,-3.29696 h 0.67697 q 0.77514,0 1.08003,-0.26872 0.31006,-0.27388 0.31006,-0.80098 0,-1.02319 -1.39009,-1.02319 h -0.67697 z m 0,3.29696 h 0.40825 q 0.80098,0 1.17305,-0.0775 0.37207,-0.0827 0.60462,-0.37724 0.23771,-0.29972 0.23771,-0.76481 0,-0.42374 -0.22738,-0.70796 -0.22221,-0.28939 -0.57877,-0.38241 -0.3514,-0.0982 -0.99736,-0.0982 h -0.62012 z"
           style="font-style:normal;font-variant:normal;font-weight:normal;font-stretch:normal;font-family:Rockwell;-inkscape-font-specification:Rockwell;stroke-width:0.26458332"
           id="path2055" />
      </g>
    </g>
    <g
       id="g2050">
      <path
         id="rect4518-1"
         transform="matrix(0.26458333,0,0,0.26458333,0,161.53335)"
         d="M 207.45898 363.72656 C 200.4483 363.72656 194.80469 369.37018 194.80469 376.38086 L 194.80469 440.95508 C 194.80469 447.96576 200.4483 453.61133 207.45898 453.61133 L 283.11523 453.61133 C 290.12591 453.61133 295.76953 447.96576 295.76953 440.95508 L 295.76953 376.38086 C 295.76953 369.37018 290.12591 363.72656 283.11523 363.72656 L 207.45898 363.72656 z M 218.05078 376.31055 L 272.52344 376.31055 C 277.57113 376.31055 281.63477 380.37419 281.63477 385.42188 L 281.63477 431.91602 C 281.63477 436.9637 277.57113 441.02734 272.52344 441.02734 L 218.05078 441.02734 C 213.00309 441.02734 208.93945 436.9637 208.93945 431.91602 L 208.93945 385.42188 C 208.93945 380.37419 213.00309 376.31055 218.05078 376.31055 z "
         style="fill:#000000;fill-opacity:0.97777776;stroke:none;stroke-width:48.75655746;stroke-linecap:round;stroke-linejoin:round;stroke-miterlimit:4;stroke-dasharray:none;stroke-opacity:1;paint-order:stroke fill markers" />
      <path
         id="rect4546-0"
         d="m 47.962809,283.29146 c -0.583823,0 -1.18052,0.45257 -1.337386,1.01492 l -1.293978,4.64055 c -0.156866,0.56235 0.186673,1.01492 0.770495,1.01492 12.531362,0 25.062724,0 37.594087,0 0.583824,0 0.927361,-0.45257 0.770495,-1.01492 l -1.294492,-4.64055 c -0.156866,-0.56235 -0.753049,-1.01492 -1.336871,-1.01492 -11.290783,0 -22.581567,0 -33.87235,0 z"
         style="fill:#000000;fill-opacity:0.97777776;stroke:none;stroke-width:8.88235283;stroke-linecap:round;stroke-linejoin:round;stroke-miterlimit:4;stroke-dasharray:none;stroke-opacity:1;paint-order:stroke fill markers"
         inkscape:connector-curvature="0"
         sodipodi:nodetypes="ccccccccc" />
      <g
         aria-label="C"
         style="font-style:normal;font-weight:normal;font-size:10.58333302px;line-height:1.25;font-family:sans-serif;letter-spacing:0px;word-spacing:0px;fill:#000000;fill-opacity:1;stroke:none;stroke-width:0.26458332"
         id="text1984">
        <path
           d="m 67.505967,270.32945 0.935344,0.52193 q -0.315227,1.19889 -1.276408,1.86035 -0.956014,0.65629 -2.201416,0.65629 -1.632975,0 -2.619995,-1.05937 -0.98702,-1.05936 -0.98702,-2.61999 0,-1.71049 0.992187,-2.72335 0.992188,-1.01286 2.58899,-1.01286 1.410766,0 2.371948,0.76998 v -0.65629 h 0.930176 v 2.30994 h -0.930176 q -0.310059,-0.7028 -0.956014,-1.08521 -0.645956,-0.38757 -1.35909,-0.38757 -1.07487,0 -1.767334,0.77515 -0.687297,0.77514 -0.687297,1.95853 0,1.2144 0.738973,1.98438 0.738973,0.76998 1.751831,0.76998 0.831991,0 1.51412,-0.53227 0.682129,-0.53744 0.961181,-1.52962 z"
           style="font-style:normal;font-variant:normal;font-weight:normal;font-stretch:normal;font-family:Rockwell;-inkscape-font-specification:Rockwell;stroke-width:0.26458332"
           id="path2058" />
      </g>
    </g>
  </g>
</svg>
